<?xml version="1.0" standalone="no"?> <!DOCTYPE svg PUBLIC "-//W3C//DTD SVG 1.0//EN" "http://www.w3.org/TR/2001/REC-SVG-20010904/DTD/svg10.dtd" > <svg xmlns="http://www.w3.org/2000/svg" width="100%" height="100%">
<defs >
<font id="false" horiz-adv-x="1257" ><font-face
    font-family="false"
    units-per-em="2000"
    panose-1="2 11 6 4 2 1 1 1 1 2"
    ascent="2028"
    descent="-507"
    alphabetic="0" />
<missing-glyph horiz-adv-x="1209" d="M164 0V1400H1045V0H164ZM354 190H855V1210H354V190Z" />
<glyph unicode=" " glyph-name="space" horiz-adv-x="540" />
<glyph unicode="!" glyph-name="exclam" horiz-adv-x="530" d="M393 1400L359 462H169L135 1400H393ZM195 325T265 325T387 273T439 151Q439 80 387 28T265 -25T143 28T90 151T142 273Z" />
<glyph unicode="&quot;" glyph-name="quotedbl" horiz-adv-x="1112" d="M266 1440H476V895H266V1440ZM636 1440H846V895H636V1440Z" />
<glyph unicode="#" glyph-name="numbersign" horiz-adv-x="1480" d="M259 1044H482L558 1400H754L678 1044H947L1023 1400H1219L1143 1044H1366L1326 858H1103L1038 549H1259L1220 363H998L921 0H725L802 363H533L456 0H260L337 363H114L154 549H377L442 858H219L259
1044ZM638 858L573 549H842L907 858H638Z" />
<glyph unicode="$" glyph-name="dollar" horiz-adv-x="1400" d="M622 1571H816V1382Q1042 1363 1236 1237L1126 1061Q978 1156 816 1176V792Q888 782 949 765T1066 718T1162 649T1224 552T1246 424Q1243 256 1124 151T817 20V-181H623V16Q491 27 365 72T151 190L268
363Q329 311 424 273T622 222V605L604 608Q536 618 478 635T366 682T275 752T216 851T195 981Q197 1146 315 1250T622 1379V1571ZM1027 413Q1028 474 975 513T816 576V227Q912 245 969 293T1027 413ZM416 987Q415 920 465 882T622 821V1172Q527 1155 472 1107T416
987Z" />
<glyph unicode="%" glyph-name="percent" horiz-adv-x="1983" d="M477 1425Q644 1425 755 1317T866 1047Q866 884 755 776T477 668Q311 668 201 776T91 1047Q91 1208 201 1316T477 1425ZM477 1240Q395 1240 342 1186T288 1047Q288 961 341 907T477 853Q561 853
615 907T669 1047Q669 1132 615 1186T477 1240ZM1542 1400L659 0H440L1323 1400H1542ZM1503 732Q1670 732 1781 624T1892 354Q1892 191 1781 83T1503 -25Q1337 -25 1227 83T1117 354Q1117 515 1227 623T1503 732ZM1503 547Q1421 547 1368 493T1314 354Q1314 268
1367 214T1503 160Q1587 160 1641 214T1695 354Q1695 439 1641 493T1503 547Z" />
<glyph unicode="&amp;" glyph-name="ampersand" horiz-adv-x="1454" d="M1424 0H1122L948 166Q771 -25 525 -25Q328 -25 216 72T103 344Q103 405 122 461T179 565T256 653T352 734Q250 835 207 912T163 1090Q163 1234 270 1329T550 1425T828 1335T935 1097Q935
1041 915 989T853 889T771 806T670 726L929 477L1122 776L1292 670L1115 393Q1111 386 1077 334L1424 0ZM538 172Q619 172 681 204T803 304L495 598Q415 534 372 476T329 351Q329 271 387 222T538 172ZM389 1077Q389 1027 416 986T528 862Q618 927 665 979T712
1087Q712 1154 670 1190T550 1227Q474 1227 432 1188T389 1077Z" />
<glyph unicode="&apos;" glyph-name="quotesingle" horiz-adv-x="742" d="M266 1440H476V895H266V1440Z" />
<glyph unicode="(" glyph-name="parenleft" horiz-adv-x="850" d="M700 1441L774 1248Q581 1159 472 975T362 568T471 161T774 -112L700 -305Q443 -198 290 36T137 568T290 1099T700 1441Z" />
<glyph unicode=")" glyph-name="parenright" horiz-adv-x="850" d="M150 -303L76 -110Q269 -21 378 163T488 570T379 977T76 1250L150 1443Q407 1336 560 1102T713 570T560 39T150 -303Z" />
<glyph unicode="*" glyph-name="asterisk" horiz-adv-x="950" d="M144 1258L395 1176V1440H555V1176L806 1258L855 1105L604 1024L760 810L630 716L475 929L320 716L190 810L345 1024L95 1105L144 1258Z" />
<glyph unicode="+" glyph-name="plus" horiz-adv-x="1200" d="M697 83H503V438H150V628H503V983H697V628H1050V438H697V83Z" />
<glyph unicode="," glyph-name="comma" horiz-adv-x="505" d="M155 271H400L280 -274H100L155 271Z" />
<glyph unicode="-" glyph-name="hyphen" horiz-adv-x="846" d="M713 628V438H133V628H713Z" />
<glyph unicode="." glyph-name="period" horiz-adv-x="529" d="M195 325T265 325T387 273T439 151Q439 80 387 28T265 -25T143 28T90 151T142 273Z" />
<glyph unicode="/" glyph-name="slash" horiz-adv-x="1007" d="M1050 1540L201 -200H-30L819 1540H1050Z" />
<glyph unicode="0" glyph-name="zero" horiz-adv-x="1423" d="M589 1424T711 1424T940 1374T1128 1233T1255 1004T1302 700Q1302 535 1256 397T1129 168T941 26T711 -24T482 26T294 167T168 396T121 700T167 1003T294 1232T481 1374ZM711 1216Q554 1216 451 1080T348
700T451 320T711 184Q869 184 972 319T1075 700T972 1080T711 1216Z" />
<glyph unicode="1" glyph-name="one" horiz-adv-x="828" d="M634 1422V0H417V1107L61 954V1180L634 1422Z" />
<glyph unicode="2" glyph-name="two" horiz-adv-x="1113" d="M234 1062L79 1190Q103 1223 127 1250T192 1311T279 1368T389 1408T526 1424Q740 1424 865 1300T990 974Q990 911 974 853T928 745T871 660T804 582L453 206H1028V0H132V170L638 708Q763 843 763 975Q763
1082 697 1149T520 1217Q453 1217 398 1194T308 1141T234 1062Z" />
<glyph unicode="3" glyph-name="three" horiz-adv-x="1141" d="M530 1424Q744 1424 875 1314T1006 1024Q1006 915 950 834T793 706Q906 661 972 577T1038 381Q1038 282 997 203T885 76T728 2T543 -24Q388 -24 264 28T61 176L200 321Q262 254 352 216T538 178Q659
178 735 232T811 391Q811 493 725 549T508 606H339V805H507Q626 805 703 858T780 1013Q780 1110 705 1166T516 1222Q424 1222 351 1179T233 1071L77 1204Q141 1304 256 1364T530 1424Z" />
<glyph unicode="4" glyph-name="four" horiz-adv-x="1152" d="M890 854V478H1104V272H890V0H673V272H48V439L572 1398H818L309 478H673V854H890Z" />
<glyph unicode="5" glyph-name="five" horiz-adv-x="1166" d="M985 1400V1195H400L393 857H577Q696 857 789 823T940 729T1027 596T1057 437Q1057 327 1018 238T910 92T753 5T566 -25Q261 -25 79 199L223 340Q285 267 378 225T565 182Q693 182 762 251T831 418Q831
466 816 506T765 580T665 633T510 652H188L201 1400H985Z" />
<glyph unicode="6" glyph-name="six" horiz-adv-x="1168" d="M867 1400L511 892Q563 906 619 906Q813 906 951 772T1089 441Q1089 241 944 109T581 -24T218 109T73 441Q73 607 199 794L602 1400H867ZM581 705Q459 705 378 631T297 441T378 251T581 177Q704 177
784 251T865 441T785 631T581 705Z" />
<glyph unicode="7" glyph-name="seven" horiz-adv-x="1096" d="M1035 1400V1230L429 0H176L774 1195H73V1400H1035Z" />
<glyph unicode="8" glyph-name="eight" horiz-adv-x="1272" d="M497 1424T636 1424T887 1377T1068 1238T1136 1024Q1136 806 921 706Q1034 662 1101 581T1169 380Q1169 257 1097 164T904 23T636 -24T368 23T176 163T103 380Q103 501 170 581T351 706Q136 806 136
1024Q136 1146 204 1238T384 1377ZM766 609T636 609T420 552T333 392Q333 290 419 234T636 177Q766 177 852 233T938 392T852 551ZM753 1222T636 1222T443 1167T366 1013Q366 911 442 855T636 799T830 855T907 1013Q907 1111 830 1166Z" />
<glyph unicode="9" glyph-name="nine" horiz-adv-x="1168" d="M301 0L657 508Q610 494 549 494Q355 494 217 628T79 959Q79 1159 224 1291T587 1424T950 1291T1095 959Q1095 793 969 606L566 0H301ZM587 695Q709 695 790 769T871 959T790 1149T587 1223Q464 1223
384 1149T303 959T383 769T587 695Z" />
<glyph unicode=":" glyph-name="colon" horiz-adv-x="529" d="M195 983T265 983T387 931T439 809Q439 738 387 686T265 633T143 686T90 809T142 931ZM195 325T265 325T387 273T439 151Q439 80 387 28T265 -25T143 28T90 151T142 273Z" />
<glyph unicode=";" glyph-name="semicolon" horiz-adv-x="505" d="M198 983T268 983T390 931T442 809Q442 738 390 686T268 633T146 686T93 809T145 931ZM155 271H400L280 -274H100L155 271Z" />
<glyph unicode="&lt;" glyph-name="less" horiz-adv-x="1200" d="M1008 275V51L193 431V636L1008 1016V792L410 534L1008 275Z" />
<glyph unicode="=" glyph-name="equal" horiz-adv-x="1200" d="M1050 428V238H150V428H1050ZM1050 828V638H150V828H1050Z" />
<glyph unicode="&gt;" glyph-name="greater" horiz-adv-x="1200" d="M193 792V1016L1008 636V431L193 51V275L791 533L193 792Z" />
<glyph unicode="?" glyph-name="question" horiz-adv-x="890" d="M382 462H192V784H281Q442 784 528 841T614 1008Q614 1106 529 1159T286 1212Q223 1212 126 1203L108 1418Q197 1432 296 1432Q556 1432 702 1320T848 1017Q848 837 731 728T390 590L382 462ZM217
325T287 325T409 273T461 151Q461 80 409 28T287 -25T165 28T112 151T164 273Z" />
<glyph unicode="@" glyph-name="at" horiz-adv-x="1972" d="M1366 883V460Q1366 352 1389 304T1467 256Q1537 256 1579 324T1621 540Q1621 713 1540 851T1313 1067T986 1145Q709 1145 530 965T351 500Q351 212 529 31T986 -150Q1211 -150 1401 -22L1498 -157Q1276
-318 986 -318Q748 -318 559 -212T265 80T160 500Q160 673 221 823T391 1081T653 1251T986 1313Q1164 1313 1318 1253T1581 1090T1750 844T1812 540Q1812 341 1718 216T1458 91Q1281 91 1216 220Q1123 97 954 97T675 211T565 500Q565 674 675 788T948 903Q1100
903 1187 799V883H1366ZM973 734Q872 734 811 667T750 500T811 333T973 266Q1072 266 1134 332T1196 500T1134 667T973 734Z" />
<glyph unicode="A" glyph-name="A" horiz-adv-x="1448" d="M865 1400L1418 0H1175L1037 357H403L265 0H30L583 1400H865ZM720 1175L486 571H954L720 1175Z" />
<glyph unicode="B" glyph-name="B" horiz-adv-x="1403" d="M190 1400H733Q849 1400 941 1379T1106 1314T1218 1195T1257 1019Q1257 912 1196 830T1041 721Q1146 690 1217 603T1289 400Q1289 197 1151 99T765 0H190V1400ZM755 600H416V212H755Q827 212 877 220T969
249T1031 309T1052 408Q1052 466 1032 504T970 563T878 592T755 600ZM724 1188H416V811H726Q778 811 817 814T897 830T962 862T1004 918T1020 1002Q1020 1060 997 1098T930 1155T838 1181T724 1188Z" />
<glyph unicode="C" glyph-name="C" horiz-adv-x="1532" d="M847 1426Q1034 1426 1189 1348T1427 1133L1238 1007Q1173 1102 1072 1155T847 1209Q631 1209 491 1067T351 700T491 333T847 191Q970 191 1070 243T1237 392L1421 257Q1331 125 1180 50T847 -26Q635
-26 468 68T207 327T114 700T207 1072T467 1332T847 1426Z" />
<glyph unicode="D" glyph-name="D" horiz-adv-x="1587" d="M190 1400H746Q1075 1400 1274 1208T1473 700T1274 192T746 0H190V1400ZM746 1186H416V214H746Q985 214 1110 347T1236 700Q1236 922 1111 1054T746 1186Z" />
<glyph unicode="E" glyph-name="E" horiz-adv-x="1363" d="M1211 212V0H190V1400H1198V1188H416V811H1171V599H416V212H1211Z" />
<glyph unicode="F" glyph-name="F" horiz-adv-x="1303" d="M1143 812V598H416V0H190V1400H1189V1186H416V812H1143Z" />
<glyph unicode="G" glyph-name="G" horiz-adv-x="1639" d="M847 1426Q1013 1426 1153 1367T1389 1200L1223 1039Q1156 1119 1059 1164T847 1209Q631 1209 491 1067T351 700Q351 476 489 334T837 191Q1026 191 1138 285T1278 554H907V764H1523Q1525 728 1525 710Q1525
559 1478 426T1344 192T1127 34T837 -25Q728 -25 624 5T427 96T265 242T155 446T114 700Q114 856 169 991T320 1221T553 1371T847 1426Z" />
<glyph unicode="H" glyph-name="H" horiz-adv-x="1588" d="M416 1400V812H1172V1400H1398V0H1172V598H416V0H190V1400H416Z" />
<glyph unicode="I" glyph-name="I" horiz-adv-x="606" d="M416 1400V0H190V1400H416Z" />
<glyph unicode="J" glyph-name="J" horiz-adv-x="1149" d="M969 1400V495Q969 250 833 113T481 -25Q193 -25 32 190L183 345Q291 192 480 192Q605 192 674 274T743 517V1400H969Z" />
<glyph unicode="K" glyph-name="K" horiz-adv-x="1424" d="M1108 0L551 597H416V0H190V1400H416V811H554L1080 1400H1372L742 717L1415 0H1108Z" />
<glyph unicode="L" glyph-name="L" horiz-adv-x="1229" d="M1191 214V0H190V1400H416V214H1191Z" />
<glyph unicode="M" glyph-name="M" horiz-adv-x="1888" d="M1698 1400V0H1472V1152L1063 137H825L416 1141V0H190V1400H537L944 400L1351 1400H1698Z" />
<glyph unicode="N" glyph-name="N" horiz-adv-x="1592" d="M1402 1400V0H1198L417 1013L416 0H190V1400H394L1176 387V1400H1402Z" />
<glyph unicode="O" glyph-name="O" horiz-adv-x="1694" d="M635 1426T847 1426T1226 1332T1487 1073T1580 700T1487 328T1227 68T847 -26T468 68T207 327T114 700T207 1072T467 1332ZM1063 1209T847 1209T491 1067T351 700T491 333T847 191T1203 333T1343 700T1203 1067Z" />
<glyph unicode="P" glyph-name="P" horiz-adv-x="1324" d="M733 550H416V0H190V1400H733Q972 1400 1100 1287T1229 975T1101 663T733 550ZM727 1187H416V763H727Q864 763 929 815T994 975T929 1135T727 1187Z" />
<glyph unicode="Q" glyph-name="Q" horiz-adv-x="1694" d="M635 1426T847 1426T1226 1332T1487 1073T1580 700Q1580 429 1422 233L1596 0H1331L1263 90Q1081 -26 847 -26Q635 -26 468 68T207 327T114 700T207 1072T467 1332ZM1063 1209T847 1209T491 1067T351
700T491 333T847 191Q1005 191 1127 271L838 655H1108L1275 430Q1343 550 1343 700Q1343 925 1203 1067Z" />
<glyph unicode="R" glyph-name="R" horiz-adv-x="1372" d="M190 1400H766Q1007 1400 1134 1296T1262 995Q1262 817 1136 707T795 589L1256 0H976L530 589H416V0H190V1400ZM760 1188H416V794H760Q896 794 961 843T1027 995Q1027 1094 961 1141T760 1188Z" />
<glyph unicode="S" glyph-name="S" horiz-adv-x="1352" d="M1222 1273L1107 1090Q919 1210 714 1210Q573 1210 486 1153T399 1001Q399 919 471 877T690 814L787 801Q1238 739 1238 416Q1238 278 1160 176T957 25T677 -25Q527 -25 373 24T114 163L237 343Q310 276
433 233T676 189Q817 189 910 245T1003 396Q1003 476 926 519T688 585L579 600Q513 609 456 626T343 674T250 746T188 850T164 987Q164 1123 239 1224T438 1374T716 1424Q996 1424 1222 1273Z" />
<glyph unicode="T" glyph-name="T" horiz-adv-x="1208" d="M1170 1400V1186H717V0H491V1186H38V1400H1170Z" />
<glyph unicode="U" glyph-name="U" horiz-adv-x="1530" d="M1359 1400V552Q1359 410 1313 299T1186 117T998 11T765 -25T532 11T344 117T217 298T171 552V1400H397V569Q397 377 495 285T765 192T1034 284T1133 569V1400H1359Z" />
<glyph unicode="V" glyph-name="V" horiz-adv-x="1410" d="M1380 1400L846 0H564L30 1400H271L707 229L1146 1400H1380Z" />
<glyph unicode="W" glyph-name="W" horiz-adv-x="2180" d="M2132 1400L1705 0H1425L1090 1093L755 0H475L48 1400H285L618 261L964 1400H1221L1566 261L1900 1400H2132Z" />
<glyph unicode="X" glyph-name="X" horiz-adv-x="1356" d="M1292 1400L813 714L1311 0H1038L676 539L311 0H45L542 714L65 1400H338L680 890L1025 1400H1292Z" />
<glyph unicode="Y" glyph-name="Y" horiz-adv-x="1328" d="M1319 1400L779 568V0H553V572L9 1400H279L667 773L1056 1400H1319Z" />
<glyph unicode="Z" glyph-name="Z" horiz-adv-x="1292" d="M1178 1400V1225L414 214H1178V0H114V175L878 1186H116V1400H1178Z" />
<glyph unicode="[" glyph-name="bracketleft" horiz-adv-x="775" d="M699 -69V-263H190V1400H699V1206H406V-69H699Z" />
<glyph unicode="\" glyph-name="backslash" horiz-adv-x="1007" d="M806 -200L-43 1540H188L1037 -200H806Z" />
<glyph unicode="]" glyph-name="bracketright" horiz-adv-x="775" d="M76 1206V1400H585V-263H76V-69H369V1206H76Z" />
<glyph unicode="^" glyph-name="asciicircum" horiz-adv-x="1200" d="M364 635H141L498 1400H702L1059 635H831L597 1177L364 635Z" />
<glyph unicode="_" glyph-name="underscore" horiz-adv-x="940" d="M945 -113V-303H-5V-113H945Z" />
<glyph unicode="`" glyph-name="grave" horiz-adv-x="1000" d="M729 1110H523L272 1410H538L729 1110Z" />
<glyph unicode="a" glyph-name="a" horiz-adv-x="1248" d="M1084 958V0H875V115Q766 -25 574 -25Q371 -25 233 118T95 479T233 840T574 983Q766 983 875 842V958H1084ZM599 786Q468 786 389 698T310 479T389 261T599 172Q727 172 807 259T888 479T808 699T599 786Z" />
<glyph unicode="b" glyph-name="b" horiz-adv-x="1247" d="M673 983Q876 983 1014 840T1152 479T1014 118T673 -25Q482 -25 373 114V0H164V1440H373V844Q482 983 673 983ZM648 786Q520 786 440 699T359 479T439 259T648 172Q779 172 858 260T937 479T858 697T648 786Z" />
<glyph unicode="c" glyph-name="c" horiz-adv-x="1027" d="M599 983Q708 983 801 944T957 830L823 687Q718 786 593 786Q471 786 391 700T310 479T390 258T593 172Q721 172 828 272L957 128Q825 -25 599 -25T234 118T95 479T234 840T599 983Z" />
<glyph unicode="d" glyph-name="d" horiz-adv-x="1248" d="M574 983Q766 983 875 842V1440H1084V0H875V115Q766 -25 574 -25Q371 -25 233 118T95 479T233 840T574 983ZM599 786Q468 786 389 698T310 479T389 261T599 172Q727 172 807 259T888 479T808 699T599 786Z" />
<glyph unicode="e" glyph-name="e" horiz-adv-x="1120" d="M572 983Q773 983 898 844T1025 480Q1025 450 1021 402H313Q333 279 411 219T598 158Q748 158 875 259L979 110Q821 -25 585 -25Q368 -25 232 114T95 479Q95 704 227 843T572 983ZM568 797Q460 797 396
734T314 561H811Q794 673 731 735T568 797Z" />
<glyph unicode="f" glyph-name="f" horiz-adv-x="844" d="M779 958V768H451V0H241V768H49V958H241V1120Q241 1273 321 1369T562 1465Q707 1465 829 1393L755 1217Q666 1268 576 1268Q515 1268 483 1230T451 1120V958H779Z" />
<glyph unicode="g" glyph-name="g" horiz-adv-x="1232" d="M539 983Q747 983 858 843V958H1068V67Q1068 -159 931 -289T554 -419Q444 -419 336 -390T153 -308L229 -131Q388 -228 554 -228Q700 -228 779 -153T858 58V135Q748 -5 539 -5Q456 -5 377 29T235 125T134
282T95 489T133 696T235 852T377 948T539 983ZM593 786Q464 786 387 701T310 489Q310 364 387 278T593 192Q718 192 797 276T876 489T797 701T593 786Z" />
<glyph unicode="h" glyph-name="h" horiz-adv-x="1209" d="M374 1440V844Q471 983 666 983Q837 983 946 877T1055 602V0H845V533Q845 653 787 718T622 784T445 717T374 531V0H164V1440H374Z" />
<glyph unicode="i" glyph-name="i" horiz-adv-x="538" d="M374 958V0H164V958H374ZM206 1437T268 1437T373 1394T416 1289T373 1185T268 1143T164 1185T122 1289T164 1394Z" />
<glyph unicode="j" glyph-name="j" horiz-adv-x="544" d="M380 958V-118Q380 -262 303 -340T99 -419Q15 -419 -46 -390L3 -208Q40 -222 80 -222T145 -194T170 -108V958H380ZM211 1437T273 1437T378 1394T421 1289T378 1185T273 1143T169 1185T127 1289T169 1394Z" />
<glyph unicode="k" glyph-name="k" horiz-adv-x="1085" d="M374 1440V594H479L795 958H1058L657 507L1062 0H797L478 404H374V0H164V1440H374Z" />
<glyph unicode="l" glyph-name="l" horiz-adv-x="538" d="M374 1440V0H164V1440H374Z" />
<glyph unicode="m" glyph-name="m" horiz-adv-x="1890" d="M1347 983Q1518 983 1627 877T1736 602V0H1526V533Q1526 653 1468 718T1303 784T1126 717T1055 531V0H845V533Q845 653 787 718T622 784T445 717T374 531V0H164V958H372V841Q469 983 666 983Q774 983
860 938T997 812Q1101 983 1347 983Z" />
<glyph unicode="n" glyph-name="n" horiz-adv-x="1209" d="M666 983Q837 983 946 877T1055 602V0H845V533Q845 653 787 718T622 784T445 717T374 531V0H164V958H372V841Q469 983 666 983Z" />
<glyph unicode="o" glyph-name="o" horiz-adv-x="1221" d="M464 983T610 983T874 918T1059 737T1126 479T1059 222T874 41T610 -25T346 41T162 222T95 479T161 736T346 917ZM739 786T610 786T396 700T310 479T395 258T610 172T825 258T911 479T825 700Z" />
<glyph unicode="p" glyph-name="p" horiz-adv-x="1247" d="M673 983Q876 983 1014 840T1152 479T1014 118T673 -25Q482 -25 373 114V-400H164V958H373V844Q482 983 673 983ZM648 786Q520 786 440 699T359 479T439 259T648 172Q779 172 858 260T937 479T858 697T648 786Z" />
<glyph unicode="q" glyph-name="q" horiz-adv-x="1248" d="M574 983Q766 983 875 842V958H1084V-400H875V115Q766 -25 574 -25Q371 -25 233 118T95 479T233 840T574 983ZM599 786Q468 786 389 698T310 479T389 261T599 172Q727 172 807 259T888 479T808 699T599 786Z" />
<glyph unicode="r" glyph-name="r" horiz-adv-x="859" d="M649 983Q742 983 810 956L760 749Q693 784 601 784Q499 784 436 716T373 527V0H164V958H371V850Q463 983 649 983Z" />
<glyph unicode="s" glyph-name="s" horiz-adv-x="1011" d="M906 881L816 718Q765 750 684 775T520 800Q436 800 388 769T339 686Q339 662 350 645T385 616T434 599T497 587L596 572Q929 524 929 289Q929 148 813 62T493 -24Q248 -24 82 99L179 256Q307 158 495
158Q601 158 657 189T713 275Q713 358 547 381L447 394Q288 416 205 487T122 675Q122 817 228 899T518 982Q750 982 906 881Z" />
<glyph unicode="t" glyph-name="t" horiz-adv-x="908" d="M817 958V768H450V351Q450 259 492 216T602 172Q692 172 795 237L878 70Q737 -25 584 -25Q418 -25 329 67T240 347V768H49V958H240V1248H450V958H817Z" />
<glyph unicode="u" glyph-name="u" horiz-adv-x="1196" d="M1042 958V406Q1042 296 1005 211T904 76T763 0T598 -25T434 0T292 75T191 211T154 406V958H364V425Q364 294 428 233T598 172T768 233T832 425V958H1042Z" />
<glyph unicode="v" glyph-name="v" horiz-adv-x="1062" d="M1039 958L656 0H408L23 958H251L534 217L817 958H1039Z" />
<glyph unicode="w" glyph-name="w" horiz-adv-x="1674" d="M956 958L1195 226L1421 958H1639L1322 0H1072L835 722L598 0H352L35 958H258L483 230L719 958H956Z" />
<glyph unicode="x" glyph-name="x" horiz-adv-x="1051" d="M1011 958L657 491L1018 0H761L518 333L278 0H33L394 489L39 958H296L529 638L764 958H1011Z" />
<glyph unicode="y" glyph-name="y" horiz-adv-x="1098" d="M1086 958L330 -406H98L441 197L16 958H251L559 408L856 958H1086Z" />
<glyph unicode="z" glyph-name="z" horiz-adv-x="1041" d="M916 958V806L393 190H926V0H115V152L647 768H131V958H916Z" />
<glyph unicode="{" glyph-name="braceleft" horiz-adv-x="880" d="M804 1206H756Q655 1206 597 1152T543 1002L548 894Q553 777 501 694T342 569Q449 528 501 445T548 244L543 136Q539 40 597 -14T756 -68H804V-262H756Q542 -262 430 -149T327 160L332 268Q336
365 278 418T114 472V666Q219 666 277 719T332 870L327 978Q318 1174 430 1287T756 1400H804V1206Z" />
<glyph unicode="|" glyph-name="bar" horiz-adv-x="742" d="M476 1400V-265H266V1400H476Z" />
<glyph unicode="}" glyph-name="braceright" horiz-adv-x="880" d="M76 -68H124Q225 -68 283 -14T337 136L332 244Q327 361 379 444T538 569Q431 610 379 693T332 894L337 1002Q341 1098 283 1152T124 1206H76V1400H124Q338 1400 450 1287T553 978L548 870Q544
773 602 720T766 666V472Q661 472 603 419T548 268L553 160Q562 -36 450 -149T124 -262H76V-68Z" />
<glyph unicode="~" glyph-name="asciitilde" horiz-adv-x="1200" d="M954 656L1068 523Q1008 460 942 431T788 401Q706 401 639 420T515 459T399 479Q334 479 247 404L133 537Q193 600 259 629T413 659Q496 659 562 640T686 601T802 581Q867 581 954 656Z" />
</font>
</defs>
</svg>
